<svg width="100" height="100" viewBox="0 0 100 100" fill="none" xmlns="http://www.w3.org/2000/svg">
<path d="M51.1156 95.7259C39.5382 96.8363 30.2904 94.5727 23.3721 88.9349C16.5403 83.2888 12.5216 74.3085 11.316 61.9941C10.7299 56.0079 10.9591 50.3319 12.0036 44.9662C13.0397 39.515 14.813 34.4679 17.3236 29.8248C19.9205 25.1734 23.2241 21.0584 27.2343 17.48C31.3224 13.8077 36.0476 10.8512 41.4096 8.61052C46.8581 6.36155 52.9518 4.91388 59.6909 4.26751C66.5164 3.61286 72.0641 4.15975 76.3342 5.9082C80.6822 7.56284 83.9225 9.92797 86.055 13.0036C88.2739 16.0709 89.555 19.3577 89.8983 22.8639C90.2499 26.4556 89.6901 30.0916 88.219 33.7718C86.8343 37.4437 84.6134 40.5916 81.5563 43.2155C78.4992 45.8393 74.6811 47.3708 70.102 47.81C65.1773 48.2824 61.0342 47.385 57.6727 45.1178C54.3028 42.7651 52.4337 39.7073 52.0653 35.9446C51.9565 34.8329 51.9772 33.7087 52.1276 32.5721C52.8272 32.5914 53.4877 32.6575 54.1092 32.7705C54.8088 32.7897 55.461 32.7704 56.0658 32.7123C58.0529 32.5217 59.7864 31.967 61.2662 31.0482C62.8241 30.0356 63.9987 28.6713 64.79 26.9553C65.5813 25.2394 65.8681 23.2697 65.6504 21.0462C65.4495 18.9938 64.6647 17.2132 63.2961 15.7044C61.9274 14.1956 59.9903 13.5613 57.4847 13.8017C55.2384 14.0171 53.1844 14.8615 51.3228 16.3349C49.4529 17.7227 47.8102 19.6498 46.3946 22.1162C44.9707 24.4971 43.8047 27.2849 42.8965 30.4795C42.0747 33.6658 41.5024 37.1735 41.1796 41.0026C40.9348 44.7378 41.0092 48.6151 41.4027 52.6344C41.9218 57.9364 42.9061 62.2011 44.3558 65.4286C45.8836 68.5622 47.9323 70.7827 50.5022 72.0899C53.1501 73.3034 56.3316 73.732 60.0467 73.3756C61.6019 73.2265 63.2225 72.8552 64.9086 72.2619C66.5947 71.6686 68.2557 70.8187 69.8916 69.7123C71.6139 68.5976 73.1772 67.196 74.5817 65.5076C75.9778 63.7336 77.1676 61.6341 78.1512 59.2091C81.0247 60.0557 83.1584 61.3616 84.5522 63.127C86.0324 64.884 86.8813 66.8743 87.099 69.0977C87.3585 71.7488 86.8878 74.513 85.687 77.3904C84.4861 80.2678 82.4393 82.9674 79.5467 85.4892C76.654 88.0109 72.8555 90.188 68.1511 92.0203C63.4468 93.8526 57.7683 95.0878 51.1156 95.7259Z" fill="#327CEC"/>
</svg>
