<svg width="238" height="114" viewBox="0 0 238 114" fill="none" xmlns="http://www.w3.org/2000/svg">
<path d="M102.679 51.1671C101.378 51.2931 100.155 51.2509 99.0097 51.0404C97.864 50.8299 96.8464 50.4195 95.9567 49.8091C95.067 49.1987 94.3438 48.3713 93.7871 47.3268C93.2305 46.2823 92.8775 44.9903 92.7284 43.4508C92.5355 41.4602 92.6525 39.627 93.0796 37.9513C93.5306 36.2465 94.2569 34.7562 95.2585 33.4803C96.2867 32.2019 97.5661 31.167 99.097 30.3756C100.628 29.5843 102.389 29.0922 104.379 28.8993C105.706 28.7707 106.929 28.8129 108.049 29.026C109.194 29.2364 110.199 29.6482 111.062 30.2611C111.922 30.8475 112.63 31.6497 113.184 32.6677C113.738 33.6856 114.088 34.9511 114.235 36.464C114.428 38.4547 114.299 40.3024 113.848 42.0072C113.421 43.6828 112.696 45.1864 111.673 46.518C110.673 47.8204 109.41 48.8806 107.882 49.6984C106.377 50.4872 104.643 50.9768 102.679 51.1671ZM103.005 48.7243C103.589 48.6677 104.073 48.2725 104.457 47.5386C104.868 46.8022 105.179 45.8612 105.389 44.7156C105.597 43.5434 105.743 42.2835 105.827 40.9358C105.911 39.5881 105.943 38.2588 105.923 36.9479C105.903 35.6371 105.844 34.4773 105.746 33.4687C105.679 32.7786 105.521 32.2448 105.27 31.8672C105.016 31.4631 104.597 31.2894 104.013 31.346C103.403 31.4051 102.892 31.8029 102.481 32.5393C102.094 33.2466 101.783 34.1743 101.545 35.3225C101.335 36.4682 101.188 37.7148 101.104 39.0625C101.047 40.4077 101.028 41.7357 101.048 43.0465C101.095 44.3548 101.169 45.5398 101.272 46.6015C101.336 47.2651 101.495 47.7989 101.749 48.203C102.002 48.6071 102.421 48.7808 103.005 48.7243ZM121.481 49.3452C120.074 49.4815 118.858 49.2376 117.833 48.6136C116.806 47.963 116.218 46.8812 116.072 45.3683C116.005 44.6782 115.998 43.7813 116.052 42.6777C116.103 41.5474 116.187 40.3337 116.302 39.0366C116.444 37.7368 116.587 36.4503 116.732 35.1771C116.9 33.8748 117.054 32.6945 117.193 31.6362C117.329 30.5513 117.432 29.684 117.503 29.0341C117.601 28.3817 117.636 28.0567 117.61 28.0593C117.752 26.4915 117.834 25.2646 117.856 24.3784C117.901 23.4631 117.893 22.6869 117.831 22.0499C117.787 21.5987 117.721 21.1899 117.632 20.8234C117.543 20.457 117.444 20.1316 117.336 19.8474C117.993 19.4354 118.749 19.0809 119.604 18.7837C120.457 18.4599 121.295 18.2582 122.118 18.1784C123.179 18.0756 124.133 18.2377 124.978 18.6648C125.849 19.0894 126.348 19.952 126.474 21.2525C126.508 21.5976 126.524 22.0381 126.522 22.5741C126.518 23.0836 126.496 23.6885 126.457 24.3889C126.444 25.0867 126.399 25.868 126.322 26.7328C126.245 27.5976 126.149 28.5445 126.035 29.5737C125.767 32.0645 125.538 34.1229 125.347 35.7488C125.181 37.3457 125.037 38.6322 124.918 39.6083C124.824 40.5818 124.749 41.3259 124.692 41.8405C124.658 42.3259 124.64 42.6894 124.637 42.9309C124.631 43.1458 124.635 43.3329 124.651 43.4921C124.702 44.023 124.91 44.5118 125.275 44.9587C125.637 45.3791 126.179 45.5811 126.901 45.5647C126.761 46.3285 126.409 46.9788 125.845 47.5157C125.28 48.0527 124.61 48.4659 123.835 48.7554C123.088 49.0688 122.303 49.2654 121.481 49.3452ZM158.559 45.7522C157.1 45.8936 155.857 45.6523 154.832 45.0283C153.805 44.3777 153.22 43.3225 153.079 41.8626C153.022 41.2787 153.034 40.5676 153.113 39.7294C153.19 38.8646 153.29 37.9574 153.412 37.0079C153.558 36.0292 153.691 35.0518 153.811 34.0757C153.931 33.0996 154.029 32.1792 154.106 31.3144C154.183 30.4496 154.189 29.6854 154.125 29.0219C154.084 28.5972 153.991 28.1909 153.846 27.8031C153.728 27.4127 153.417 27.2419 152.913 27.2907C152.408 27.3396 151.992 27.6077 151.664 28.0949C151.36 28.553 151.121 29.1254 150.947 29.8121C150.769 30.4723 150.645 31.1273 150.574 31.7772C150.501 32.4005 150.442 32.9018 150.399 33.2811L149.166 45.8587L140.452 47.5872L141.691 36.7371C141.743 36.4374 141.794 36.0037 141.847 35.436C141.923 34.8392 141.982 34.2039 142.024 33.5301C142.089 32.8271 142.133 32.1665 142.153 31.5483C142.197 30.901 142.2 30.3783 142.162 29.9802C142.131 29.6617 142.044 29.3218 141.902 28.9605C141.757 28.5726 141.433 28.4031 140.929 28.452C140.424 28.5009 140.007 28.7556 139.677 29.2163C139.344 29.6505 139.075 30.1989 138.871 30.8617C138.692 31.4953 138.553 32.1383 138.456 32.7908C138.358 33.4432 138.291 33.9989 138.255 34.4578L137.063 47.0315L128.309 48.7639L130.437 27.178L137.518 25.6077L137.227 29.6546C137.805 28.1519 138.703 27.0468 139.92 26.3394C141.138 25.632 142.516 25.2037 144.056 25.0546C145.33 24.9311 146.493 25.0461 147.545 25.3996C148.595 25.7266 149.375 26.4547 149.887 27.584C150.522 26.3972 151.401 25.5216 152.526 24.9572C153.674 24.3637 154.951 23.9988 156.358 23.8625C158.083 23.6953 159.51 23.9053 160.639 24.4925C161.791 25.0506 162.452 26.2056 162.622 27.9574C162.686 28.6209 162.679 29.3718 162.599 30.2101C162.544 31.0192 162.452 31.872 162.325 32.7685C162.195 33.6384 162.065 34.5083 161.935 35.3783C161.829 36.2191 161.732 37.0188 161.645 37.7774C161.584 38.5335 161.581 39.1902 161.635 39.7476C161.702 40.4377 161.915 40.9796 162.274 41.3734C162.634 41.7673 163.176 41.9693 163.9 41.9794C163.663 43.1277 162.999 44.0092 161.906 44.6241C160.843 45.263 159.727 45.639 158.559 45.7522ZM172.257 44.4249C170.717 44.574 169.412 44.379 168.342 43.8397C167.296 43.2713 166.477 42.4263 165.886 41.3048C165.293 40.1567 164.918 38.7731 164.761 37.154C164.565 35.1368 164.704 33.2479 165.176 31.4875C165.648 29.7271 166.395 28.1678 167.415 26.8097C168.46 25.4225 169.705 24.3106 171.151 23.4739C172.597 22.6371 174.196 22.1339 175.948 21.9642C177.354 21.8278 178.799 21.9424 180.281 22.3078L187.008 20.812L185.656 35.8927C185.65 36.1076 185.636 36.3769 185.614 36.7005C185.592 37.0242 185.594 37.3187 185.619 37.5842C185.671 38.115 185.879 38.6039 186.244 39.0508C186.606 39.4711 187.161 39.6718 187.91 39.6529C187.743 40.4192 187.377 41.0709 186.813 41.6078C186.249 42.1447 185.592 42.5566 184.843 42.8436C184.096 43.157 183.352 43.3498 182.608 43.4218C181.706 43.5092 180.825 43.407 179.966 43.1152C179.134 42.8207 178.508 42.3054 178.089 41.5691C177.465 42.3261 176.669 42.9525 175.699 43.4483C174.731 43.9708 173.584 44.2963 172.257 44.4249ZM174.674 41.5785C175.311 41.5168 175.804 41.2145 176.153 40.6716C176.529 40.1261 176.788 39.4848 176.931 38.7476C177.1 38.0078 177.207 37.3142 177.252 36.6669L178.148 24.765C177.809 24.5835 177.49 24.4671 177.19 24.4158C176.888 24.3379 176.617 24.3105 176.378 24.3337C175.635 24.4057 175.033 24.8258 174.571 25.5938C174.107 26.3354 173.745 27.2948 173.484 28.4721C173.249 29.6469 173.089 30.8948 173.003 32.216C172.943 33.5346 172.932 34.8082 172.971 36.0369C173.01 37.2655 173.07 38.3045 173.153 39.1539C173.209 39.7378 173.331 40.3021 173.518 40.8466C173.731 41.3885 174.116 41.6325 174.674 41.5785ZM196.829 42.0438C195.29 42.1929 193.985 41.9979 192.915 41.4586C191.868 40.8902 191.05 40.0452 190.459 38.9237C189.865 37.7755 189.49 36.392 189.333 34.7729C189.138 32.7557 189.276 30.8668 189.748 29.1064C190.221 27.3459 190.967 25.7867 191.988 24.4286C193.006 23.044 194.238 21.9333 195.684 21.0966C197.13 20.2599 198.729 19.7567 200.48 19.5869C200.985 19.538 201.545 19.5106 202.16 19.5045C202.8 19.4693 203.245 19.5065 203.497 19.6161L211.546 20.5642C211.381 22.4556 211.202 24.4823 211.01 26.6442C210.815 28.7796 210.555 31.0688 210.229 33.5116C210.223 33.7265 210.209 33.9958 210.187 34.3194C210.164 34.6431 210.166 34.9376 210.192 35.2031C210.243 35.7339 210.451 36.2228 210.816 36.6697C211.178 37.09 211.734 37.2907 212.482 37.2718C212.315 38.0381 211.95 38.6898 211.385 39.2267C210.821 39.7636 210.165 40.1755 209.415 40.4625C208.669 40.7759 207.924 40.9687 207.181 41.0407C206.278 41.1281 205.398 41.0259 204.539 40.7341C203.707 40.4396 203.081 39.9243 202.661 39.188C202.038 39.9449 201.241 40.5714 200.271 41.0672C199.304 41.5897 198.156 41.9152 196.829 42.0438ZM199.246 39.1974C199.883 39.1357 200.376 38.8334 200.725 38.2905C201.101 37.745 201.361 37.1037 201.503 36.3665C201.673 35.6267 201.78 34.9331 201.824 34.2858L202.721 22.3839C202.381 22.2024 202.062 22.086 201.762 22.0347C201.46 21.9568 201.19 21.9294 200.951 21.9526C200.207 22.0246 199.605 22.4446 199.144 23.2127C198.68 23.9543 198.317 24.9137 198.056 26.091C197.822 27.2658 197.661 28.5137 197.575 29.8349C197.515 31.1535 197.505 32.4271 197.544 33.6558C197.582 34.8844 197.643 35.9234 197.725 36.7728C197.782 37.3567 197.903 37.9209 198.09 38.4655C198.303 39.0074 198.689 39.2514 199.246 39.1974ZM211.509 21.0098L203.022 21.35C203.18 19.9415 203.286 18.6854 203.34 17.5817C203.418 16.4489 203.433 15.3624 203.386 14.3221C203.34 13.8443 203.281 13.3811 203.211 12.9325C203.167 12.4813 203.096 12.0194 202.997 11.5467C203.6 11.14 204.33 10.788 205.185 10.4907C206.064 10.1644 206.929 9.9601 207.778 9.8778C208.866 9.77235 209.821 9.94775 210.642 10.404C211.463 10.8603 211.914 11.7811 211.995 13.1664C212.038 13.6176 212.042 14.2067 212.005 14.9336C211.992 15.6315 211.941 16.4804 211.85 17.4805C211.786 18.478 211.672 19.6544 211.509 21.0098ZM223.714 39.4386C222.413 39.5646 221.19 39.5224 220.044 39.3119C218.899 39.1014 217.881 38.691 216.991 38.0806C216.102 37.4703 215.378 36.6428 214.822 35.5983C214.265 34.5538 213.912 33.2618 213.763 31.7224C213.57 29.7317 213.687 27.8985 214.114 26.2229C214.565 24.5181 215.292 23.0277 216.293 21.7519C217.321 20.4734 218.601 19.4385 220.132 18.6472C221.662 17.8558 223.423 17.3637 225.414 17.1708C226.741 17.0422 227.964 17.0844 229.083 17.2975C230.229 17.508 231.233 17.9197 232.096 18.5326C232.957 19.119 233.664 19.9212 234.218 20.9392C234.772 21.9572 235.123 23.2226 235.269 24.7355C235.462 26.7262 235.333 28.5739 234.882 30.2787C234.455 31.9544 233.73 33.458 232.707 34.7895C231.708 36.0919 230.444 37.1521 228.916 37.97C227.412 38.7587 225.678 39.2483 223.714 39.4386ZM224.04 36.9958C224.623 36.9392 225.108 36.544 225.492 35.8102C225.903 35.0738 226.214 34.1328 226.424 32.9871C226.632 31.8149 226.778 30.555 226.861 29.2073C226.945 27.8596 226.977 26.5303 226.957 25.2195C226.937 23.9086 226.879 22.7489 226.781 21.7403C226.714 21.0502 226.555 20.5163 226.304 20.1388C226.051 19.7347 225.632 19.5609 225.048 19.6175C224.438 19.6766 223.927 20.0744 223.516 20.8108C223.129 21.5181 222.817 22.4459 222.58 23.5941C222.37 24.7397 222.223 25.9864 222.139 27.3341C222.082 28.6792 222.063 30.0072 222.083 31.318C222.129 32.6263 222.204 33.8113 222.307 34.873C222.371 35.5366 222.53 36.0704 222.783 36.4745C223.037 36.8786 223.456 37.0524 224.04 36.9958Z" fill="white"/>
<path d="M48.2439 110.197C36.8625 111.3 27.7713 109.051 20.9702 103.452C14.254 97.8441 10.3033 88.9249 9.11815 76.6941C8.54202 70.7487 8.76735 65.1113 9.79413 59.7821C10.8127 54.368 12.556 49.3551 15.024 44.7436C17.577 40.1238 20.8247 36.0368 24.7669 32.4827C28.7859 28.8354 33.431 25.899 38.7022 23.6736C44.0584 21.4399 50.049 20.0021 56.674 19.3601C63.3839 18.7099 68.8377 19.2531 73.0354 20.9896C77.3099 22.633 80.4953 24.9821 82.5917 28.0368C84.773 31.0833 86.0324 34.3477 86.3699 37.83C86.7155 41.3973 86.1653 45.0086 84.7191 48.6638C83.3578 52.3107 81.1745 55.4372 78.1692 58.0432C75.1639 60.6492 71.4104 62.1703 66.9088 62.6066C62.0675 63.0757 57.9946 62.1844 54.69 59.9326C51.3771 57.5959 49.5397 54.559 49.1775 50.8218C49.0705 49.7176 49.0909 48.6011 49.2388 47.4723C49.9265 47.4914 50.5758 47.557 51.1868 47.6693C51.8746 47.6884 52.5157 47.6691 53.1102 47.6115C55.0637 47.4222 56.7679 46.8713 58.2227 45.9587C59.7541 44.953 60.9088 43.598 61.6867 41.8937C62.4646 40.1893 62.7466 38.233 62.5326 36.0247C62.3351 33.9863 61.5636 32.2178 60.2181 30.7192C58.8726 29.2207 56.9683 28.5907 54.5052 28.8294C52.2969 29.0434 50.2777 29.8821 48.4476 31.3454C46.6093 32.7238 44.9944 34.6378 43.6029 37.0874C42.2031 39.4521 41.0568 42.2209 40.164 45.3938C39.3561 48.5585 38.7935 52.0424 38.4762 55.8454C38.2355 59.5552 38.3086 63.4061 38.6954 67.3981C39.2057 72.6641 40.1734 76.8998 41.5986 80.1053C43.1004 83.2176 45.1145 85.423 47.6409 86.7214C50.2439 87.9266 53.3716 88.3523 57.0238 87.9984C58.5526 87.8502 60.1458 87.4815 61.8034 86.8922C63.4609 86.3029 65.0938 85.4588 66.702 84.3599C68.3951 83.2528 69.932 81.8607 71.3127 80.1838C72.6851 78.4218 73.8548 76.3366 74.8217 73.9281C77.6466 74.7689 79.7442 76.066 81.1143 77.8194C82.5694 79.5645 83.404 81.5412 83.618 83.7495C83.8731 86.3825 83.4104 89.128 82.2299 91.9858C81.0494 94.8437 79.0373 97.5249 76.1936 100.03C73.3499 102.534 69.6157 104.696 64.991 106.516C60.3663 108.336 54.7839 109.563 48.2439 110.197Z" fill="white"/>
<path d="M104.981 92.3602C102.306 92.6195 99.8612 92.3848 97.6472 91.6563C95.4333 90.9278 93.6139 89.6252 92.1889 87.7485C90.7639 85.8719 89.8992 83.3623 89.5946 80.2197C89.3272 77.4593 89.4734 74.7659 90.0334 72.1397C90.6317 69.4668 91.7027 67.0268 93.2463 64.8197C94.79 62.6125 96.8419 60.7847 99.4022 59.3364C102.005 57.8839 105.175 56.9766 108.912 56.6144C110.823 56.4293 112.648 56.4667 114.388 56.7268C116.171 56.9827 117.672 57.6518 118.891 58.7339C120.11 59.816 120.829 61.4824 121.047 63.7332C121.236 65.6867 120.851 67.4602 119.891 69.0535C118.931 70.6469 117.307 72.0259 115.019 73.1907C112.727 74.313 109.683 75.1867 105.885 75.8119C105.38 75.9037 104.853 75.9976 104.305 76.0936C103.796 76.143 103.244 76.1965 102.649 76.2541C102.644 76.6404 102.642 77.0692 102.645 77.5405C102.644 77.9692 102.66 78.3535 102.692 78.6933C102.849 80.307 103.352 81.5228 104.203 82.3405C105.093 83.1117 106.45 83.4088 108.276 83.2319C109.805 83.0837 111.409 82.6068 113.089 81.801C114.768 80.9953 115.952 79.9375 116.639 78.6278C117.275 78.9949 117.724 79.4229 117.985 79.9119C118.285 80.3544 118.47 80.9366 118.54 81.6586C118.734 83.6545 118.176 85.4232 116.868 86.9646C115.603 88.5018 113.899 89.7172 111.756 90.6106C109.618 91.5466 107.36 92.1298 104.981 92.3602ZM102.772 73.5416C104.258 73.3975 105.508 73.0193 106.52 72.4068C107.575 71.7902 108.401 71.0243 108.998 70.1091C109.633 69.1473 110.044 68.0787 110.23 66.9032C110.455 65.6812 110.503 64.412 110.376 63.0955C110.239 62.1228 109.991 61.3324 109.632 60.7242C109.315 60.1119 108.732 59.8469 107.883 59.9292C107.288 59.9868 106.714 60.2567 106.161 60.739C105.608 61.2213 105.102 61.9776 104.645 63.0078C104.187 64.0381 103.786 65.4273 103.441 67.1754C103.134 68.8769 102.911 70.9989 102.772 73.5416ZM136.812 89.4044C134.986 89.5814 133.168 89.6288 131.36 89.5469C129.598 89.5033 127.947 89.2774 126.408 88.8694C124.91 88.4572 123.691 87.8251 122.752 86.9732C121.812 86.1212 121.274 84.9945 121.138 83.593C121.061 82.3573 121.279 81.286 121.791 80.3791C122.261 79.4762 123.004 78.7398 124.02 78.1697C125.079 77.5956 126.373 77.2345 127.902 77.0863C128.836 76.9958 129.823 77.0073 130.863 77.1209C131.903 77.2344 132.783 77.4706 133.504 77.8295C133.374 78.6994 133.32 79.4762 133.344 80.1598C133.367 80.8434 133.422 81.6311 133.509 82.5229C133.696 83.5764 134.142 84.412 134.845 85.0297C135.59 85.6434 136.536 85.8946 137.682 85.7835C138.872 85.6683 139.781 85.323 140.411 84.7475C141.08 84.1255 141.375 83.411 141.297 82.6041C141.232 81.4958 140.624 80.526 139.472 79.6946C138.358 78.8166 136.97 77.9866 135.308 77.2046C133.689 76.4184 132.044 75.5919 130.374 74.7249C129.06 73.9949 127.846 73.1909 126.732 72.3129C125.661 71.4308 124.793 70.4432 124.13 69.35C123.463 68.2144 123.061 66.9459 122.926 65.5445C122.799 63.7992 123.184 62.2401 124.08 60.8673C124.972 59.4521 126.206 58.2607 127.784 57.2934C129.401 56.2794 131.21 55.4826 133.211 54.9028C135.251 54.2765 137.311 53.8625 139.392 53.6609C141.516 53.4551 143.621 53.5083 145.709 53.8203C147.793 54.09 149.546 54.7131 150.97 55.6897C152.389 56.6238 153.166 58.006 153.301 59.8362C153.439 61.7089 152.936 63.1508 151.791 64.162C150.646 65.1731 149.033 65.7795 146.952 65.9812C146.06 66.0676 145.115 66.052 144.118 65.9343C143.159 65.77 142.277 65.5126 141.471 65.162C141.596 64.6784 141.672 64.1352 141.699 63.5324C141.765 62.883 141.788 62.2378 141.769 61.5966C141.675 60.1911 141.288 59.0712 140.607 58.237C139.926 57.4028 138.968 57.0241 137.732 57.101C136.925 57.1792 136.207 57.506 135.577 58.0815C134.985 58.6103 134.715 59.3652 134.767 60.3461C134.82 61.327 135.294 62.2454 136.192 63.1016C137.085 63.9152 138.233 64.7041 139.636 65.4684C141.035 66.1902 142.497 66.9058 144.024 67.6152C145.639 68.3589 147.067 69.1635 148.309 70.0292C149.588 70.8483 150.625 71.8194 151.42 72.9427C152.211 74.0235 152.661 75.3516 152.771 76.927C152.926 78.9696 152.444 80.8595 151.327 82.5967C150.209 84.3339 148.445 85.8123 146.034 87.0319C143.619 88.2089 140.545 88.9998 136.812 89.4044ZM167.046 86.3461C164.582 86.5848 162.495 86.2727 160.782 85.4098C159.108 84.5004 157.798 83.1484 156.853 81.3539C155.903 79.5169 155.303 77.3032 155.052 74.7127C154.739 71.4851 154.96 68.463 155.716 65.6463C156.472 62.8296 157.666 60.3348 159.299 58.1618C160.97 55.9423 162.963 54.1632 165.276 52.8245C167.59 51.4857 170.148 50.6806 172.951 50.409C175.202 50.1908 177.513 50.3741 179.884 50.9588L190.648 48.5655L188.485 72.6946C188.475 73.0385 188.453 73.4693 188.417 73.9872C188.382 74.505 188.384 74.9763 188.426 75.4009C188.508 76.2503 188.841 77.0325 189.425 77.7475C190.004 78.4201 190.893 78.7412 192.09 78.711C191.823 79.9371 191.238 80.9797 190.335 81.8388C189.433 82.6978 188.382 83.3569 187.183 83.816C185.989 84.3175 184.797 84.6259 183.608 84.7411C182.164 84.8811 180.755 84.7175 179.381 84.2506C178.049 83.7795 177.048 82.9549 176.376 81.7768C175.379 82.988 174.105 83.9902 172.553 84.7836C171.005 85.6195 169.169 86.1403 167.046 86.3461ZM170.912 81.7919C171.932 81.6931 172.721 81.2094 173.279 80.3408C173.881 79.4681 174.296 78.442 174.524 77.2624C174.795 76.0787 174.967 74.9691 175.038 73.9334L176.472 54.8903C175.929 54.5999 175.418 54.4137 174.939 54.3315C174.455 54.2069 174.022 54.1631 173.64 54.2002C172.451 54.3154 171.487 54.9875 170.749 56.2164C170.007 57.4029 169.427 58.938 169.009 60.8217C168.634 62.7013 168.377 64.698 168.239 66.8119C168.143 68.9216 168.127 70.9594 168.189 72.9253C168.25 74.8911 168.347 76.5536 168.479 77.9125C168.569 78.8468 168.764 79.7496 169.063 80.6208C169.404 81.488 170.021 81.8783 170.912 81.7919ZM194.334 83.8304L197.612 49.3053L209.006 46.7866L208.54 53.2617C209.354 51.0395 210.518 49.3407 212.033 48.1651C213.59 46.9853 215.558 46.2803 217.936 46.0498C220.569 45.7947 222.669 46.2341 224.237 47.3683C225.804 48.5024 226.711 50.3435 226.958 52.8915C227.234 55.7369 226.588 58.1357 225.019 60.0881C223.493 62.0363 221.393 63.1401 218.717 63.3994C217.91 63.4775 217.095 63.4708 216.272 63.3791C215.487 63.2409 214.862 62.98 214.396 62.5964C215.104 61.499 215.632 60.0975 215.982 58.3919C216.373 56.6821 216.505 55.169 216.378 53.8525C216.312 53.173 216.146 52.5675 215.88 52.036C215.614 51.5045 215.099 51.2758 214.335 51.3499C213.825 51.3993 213.332 51.6185 212.855 52.0076C212.379 52.3968 211.944 52.9962 211.551 53.8059C211.158 54.6155 210.81 55.678 210.509 56.9932C210.246 58.2618 210.057 59.8448 209.941 61.7422L208.722 81.0215L194.334 83.8304Z" fill="white"/>
</svg>
